#!OML:ASF E:/inclinewalkrobotboard/Project1/Captureday1/Session1/subject1.ASF
:FULLY-SPECIFIED
:DEGREES
138
root 0 0 0 1.8454245482793952 -3.8953521642958213 2.178514805994753
lowerback 11.985992196432317 1.1655772447275201 -0.09779319031567724
upperback -4.457480455833477 1.4651299631221353 -0.8564194437678038
thorax -11.566627024488191 0.678546397159809 -1.1355598177340425
lowerneck -6.239182020992811 1.7523746209642626 4.8330229838649394
upperneck 18.1775810838288 3.2856390973329166 -8.488364747281736
head 6.698027319429502 1.2225114862297497 -3.2931326824861777
rclavicle -2.149023854359597E-15 -1.101398093827419E-15
rhumerus 23.2650926855963 17.84983442581359 -48.50490451298651
rradius 74.9049378657707
rwrist 25.80929513932753
rhand -34.819064532696885 -58.10316093788301
rfingers 7.12502
rthumb -7.961839488645399 -88.01355825079142
lclavicle -1.1137004340619685E-15 -8.400332286991103E-16
lhumerus 22.434245266561767 -14.543562421353819 45.76564200135759
lradius 71.3391060864134
lwrist -21.386978496600314
lhand -45.27232745805969 -69.02586273422591
lfingers 7.125020000000012
lthumb -18.04648408226679 -39.77760917473121
rfemur -24.53037349584621 -0.7921998311410539 18.591717699301725
rtibia 44.95616204018012
rfoot -33.00336677833556 -17.874007157882353
rtoes -23.039121648160958
lfemur -26.558959367491255 1.8196719904184109 -15.442859332670427
ltibia 44.87501282767711
lfoot -32.31212088767898 3.3818268774597824
ltoes -21.48318567596254
139
root 0 0 0 1.845781240022287 -3.8931817253647596 2.1769399184220073
lowerback 11.98600987177231 1.1642774266989453 -0.09774399180891757
upperback -4.457532300955111 1.4634953137625644 -0.855210163705869
thorax -11.566783666654382 0.677764968148252 -1.134040034578354
lowerneck -6.2392881566218525 1.7532809363355495 4.833896478140203
upperneck 18.175831683614813 3.2869829156346393 -8.489802771055391
head 6.697408774940242 1.223060221427549 -3.293601953040615
rclavicle -2.1586567735289307E-15 -1.0949786285523116E-15
rhumerus 23.25675286559023 17.837505373219926 -48.496817685720615
rradius 74.89725715130717
rwrist 25.818275578840073
rhand -34.81886782273297 -58.103210664135545
rfingers 7.12502
rthumb -7.961975551325505 -88.0146528933405
lclavicle -1.1165361542363555E-15 -8.343956759850367E-16
lhumerus 22.43647983895204 -14.543803113859889 45.76366095735807
lradius 71.34059212333452
lwrist -21.389067358571403
lhand -45.27258641436511 -69.0276113077087
lfingers 7.125020000000012
lthumb -18.04714938463639 -39.78044750021394
rfemur -24.53230326553099 -0.7822815090307711 18.608921657632028
rtibia 44.89262767314485
rfoot -33.04513586811101 -17.87726842347118
rtoes -23.030864895475027
lfemur -26.56961351234296 1.827378261666452 -15.412945670280402
ltibia 44.987905210092954
lfoot -32.226395844138274 3.3277986278008838
ltoes -21.500959195706255
140
root 0 0 0 1.8451568138561436 -3.893968727461738 2.1764144123039233
lowerback 11.985819884721646 1.1649541890726325 -0.09667218450574133
upperback -4.457645228560082 1.4645278716934431 -0.8554733627200722
thorax -11.56671904720155 0.6782106118393854 -1.13516435844992
lowerneck -6.23864612686446 1.7527998723867964 4.833582692352406
upperneck 18.176865162781596 3.2863076752915763 -8.489212409832671
head 6.697685334858854 1.2227812559995463 -3.2934026434291637
rclavicle -2.1509476185084656E-15 -1.1019239943726154E-15
rhumerus 23.261205487192804 17.84427027436437 -48.50119228660675
rradius 74.90169437267633
rwrist 25.813371576570482
rhand -34.81911364596756 -58.10376830810193
rfingers 7.12502
rthumb -7.961865006850079 -88.01436527015278
lclavicle -1.116034824778476E-15 -8.411306208734154E-16
lhumerus 22.435117013457905 -14.545089461928121 45.76602405478039
lradius 71.34020815804784
lwrist -21.386229903283684
lhand -45.2723990319868 -69.02496929644829
lfingers 7.125020000000012
lthumb -18.046550042999737 -39.7767597942068
rfemur -24.519138749528842 -0.782728442976897 18.605127764779887
rtibia 44.90261275454848
rfoot -33.03116960580252 -17.8755262315714
rtoes -23.042814926948445
lfemur -26.57954136689347 1.8275680416421412 -15.416336658117908
ltibia 44.971552564825856
lfoot -32.24818995107721 3.340430781802179
ltoes -21.49709974412051
141
root 0 0 0 1.8451997157178606 -3.894865188186724 2.176585118648885
lowerback 11.9858459736585 1.1654912747931356 -0.09638330262504702
upperback -4.457566420395209 1.4652490448865034 -0.8558314953740788
thorax -11.56666200344344 0.6785530254513451 -1.13579221867203
lowerneck -6.238889790945624 1.7525681018779713 4.833408176585172
upperneck 18.17703692044378 3.285909887626051 -8.488797537889274
head 6.697789999150725 1.2226253858506095 -3.293278476803918
rclavicle -2.1497668266069704E-15 -1.1022005093597133E-15
rhumerus 23.263005793462256 17.84674114664986 -48.502795882680005
rradius 74.90321099188077
rwrist 25.811613127307478
rhand -34.81910741472545 -58.103610395148515
rfingers 7.12502
rthumb -7.961883315128633 -88.01415818035784
lclavicle -1.11452138018203E-15 -8.415357977173338E-16
lhumerus 22.4348548033582 -14.544606277232484 45.76588796219891
lradius 71.33985199310968
lwrist -21.38649080509653
lhand -45.272326094196764 -69.02504328808047
lfingers 7.125020000000012
lthumb -18.04648386826108 -39.776941856020045
rfemur -24.519636001585887 -0.785047294880802 18.601819905192315
rtibia 44.91761069526743
rfoot -33.022117294043454 -17.874923674577282
rtoes -23.041403764763118
lfemur -26.578954860954653 1.8265831164955055 -15.42228289595542
ltibia 44.9490524036399
lfoot -32.26942624149998 3.3537052833019114
ltoes -21.49425132189819
142
root 0 0 0 1.84523036339694 -3.894780748039406 2.1778463740012692
lowerback 11.985823292863904 1.1654162729934068 -0.09741433953703726
upperback -4.457562200092584 1.464985461470277 -0.8561549197029078
thorax -11.56662514637603 0.6784596137503591 -1.1354939012256977
lowerneck -6.2388998906055715 1.752505174299024 4.833233412884339
upperneck 18.177340028944194 3.2858283595958406 -8.488616503368497
head 6.697895459235775 1.222591971604285 -3.293217136619166
rclavicle -2.14919314210598E-15 -1.1016187108466881E-15
rhumerus 23.263690755630407 17.847852338389025 -48.50362644456748
rradius 74.90378205409786
rwrist 25.81071270716307
rhand -34.819054875679186 -58.10334670394094
rfingers 7.12502
rthumb -7.961826996593285 -88.0137953725932
lclavicle -1.114260368894073E-15 -8.404264971669003E-16
lhumerus 22.43453959912575 -14.544097206071854 45.765774559622514
lradius 71.33948502020851
lwrist -21.386720365373428
lhand -45.272335527945465 -69.0254787087404
lfingers 7.125020000000012
lthumb -18.0464899449615 -39.77724174904415
rfemur -24.526600121107418 -0.7896235945887482 18.595170406067176
rtibia 44.94276645190879
rfoot -33.008759212356836 -17.87395674115777
rtoes -23.03959447715445
lfemur -26.564002842620198 1.822528207669932 -15.434857916089394
ltibia 44.907478410927474
lfoot -32.29297846119242 3.368021876037427
ltoes -21.489548816646295
